<svg xmlns="http://www.w3.org/2000/svg" width="38" height="38" fill="none"><path fill="#3ddc84" fill-rule="evenodd" d="M18.129 37.884c-3.78-.448-5.619-.944-7.841-2.116-1.747-.92-3.134-1.951-4.6-3.417C2.323 28.985.446 24.825.14 20.053l-.052-.8.325-.482c1.087-1.618 2.286-2.827 3.304-3.331.626-.31.66-.318 1.4-.317.69 0 .802.02 1.212.224.58.287 1.475 1.166 1.996 1.962.217.331.574.976.794 1.432.326.678.422.974.527 1.621.66 4.076 3.534 7.09 7.596 7.965.757.164 2.775.184 3.526.036 1.224-.241 2.667-.825 3.657-1.48.604-.4 1.763-1.524 2.291-2.225.787-1.044 1.41-2.447 1.716-3.861.188-.873.186-2.793-.003-3.674-.302-1.401-.913-2.777-1.705-3.839-.541-.726-1.612-1.754-2.304-2.213-1.7-1.125-3.822-1.724-5.757-1.623-2.735.143-5.338-1.671-5.669-3.952-.268-1.843.993-3.73 3.212-4.807 1.39-.675 1.576-.712 3.275-.66 2.576.079 4.547.482 6.753 1.382 2.373.967 4.358 2.303 6.258 4.208 1.83 1.834 3.211 3.885 3.958 5.873.894 2.381 1.673 6.316 1.555 7.863-.119 1.573-.743 4.463-1.337 6.191-1.005 2.924-2.108 4.708-4.209 6.809-1.824 1.825-3.732 3.12-5.81 3.943-1.534.608-3.542 1.12-5.655 1.443-.8.122-2.378.201-2.865.143z"/></svg>